<svg width="14" height="18" viewBox="0 0 14 18" fill="none" xmlns="http://www.w3.org/2000/svg">
<path d="M10.375 8.71875V9.70312C10.375 9.93516 10.1852 10.125 9.95312 10.125H4.04688C3.81484 10.125 3.625 9.93516 3.625 9.70312V8.71875C3.625 8.48672 3.81484 8.29688 4.04688 8.29688H9.95312C10.1852 8.29688 10.375 8.48672 10.375 8.71875ZM9.95312 11.25H4.04688C3.81484 11.25 3.625 11.4398 3.625 11.6719V12.6562C3.625 12.8883 3.81484 13.0781 4.04688 13.0781H9.95312C10.1852 13.0781 10.375 12.8883 10.375 12.6562V11.6719C10.375 11.4398 10.1852 11.25 9.95312 11.25ZM13.75 4.63711V16.3125C13.75 17.2441 12.9941 18 12.0625 18H1.9375C1.00586 18 0.25 17.2441 0.25 16.3125V1.6875C0.25 0.755859 1.00586 0 1.9375 0H9.11289C9.55937 0 9.98828 0.179297 10.3047 0.495703L13.2543 3.44531C13.5707 3.7582 13.75 4.19062 13.75 4.63711ZM9.25 1.82461V4.5H11.9254L9.25 1.82461ZM12.0625 16.3125V6.1875H8.40625C7.93867 6.1875 7.5625 5.81133 7.5625 5.34375V1.6875H1.9375V16.3125H12.0625Z" fill="#8B9293"/>
</svg>
